<mxfile host="65bd71144e">
    <diagram id="fr4QZHJYT07X4JUdsWJC" name="Page-1">
        <mxGraphModel dx="1631" dy="537" grid="1" gridSize="10" guides="1" tooltips="1" connect="1" arrows="1" fold="1" page="1" pageScale="1" pageWidth="850" pageHeight="1100" math="0" shadow="0">
            <root>
                <mxCell id="0"/>
                <mxCell id="1" parent="0"/>
                <mxCell id="37" style="html=1;exitX=0.95;exitY=0.75;exitDx=0;exitDy=0;entryX=0;entryY=0.75;entryDx=0;entryDy=0;exitPerimeter=0;strokeColor=#333333;" edge="1" parent="1" source="20" target="13">
                    <mxGeometry relative="1" as="geometry">
                        <mxPoint x="170" y="760" as="targetPoint"/>
                    </mxGeometry>
                </mxCell>
                <mxCell id="5" style="html=1;entryX=0;entryY=0.5;entryDx=0;entryDy=0;exitX=1;exitY=0;exitDx=0;exitDy=0;strokeColor=#333333;" edge="1" parent="1" source="6" target="17">
                    <mxGeometry relative="1" as="geometry"/>
                </mxCell>
                <mxCell id="8" style="html=1;exitX=1;exitY=0.5;exitDx=0;exitDy=0;entryX=0.017;entryY=0.286;entryDx=0;entryDy=0;strokeColor=#333333;entryPerimeter=0;" edge="1" parent="1" source="10" target="17">
                    <mxGeometry relative="1" as="geometry">
                        <mxPoint x="700" y="705" as="targetPoint"/>
                    </mxGeometry>
                </mxCell>
                <mxCell id="11" style="html=1;entryX=0.025;entryY=0.728;entryDx=0;entryDy=0;strokeColor=#333333;entryPerimeter=0;" edge="1" parent="1" source="13" target="17">
                    <mxGeometry relative="1" as="geometry"/>
                </mxCell>
                <mxCell id="14" style="html=1;entryX=0.101;entryY=0.922;entryDx=0;entryDy=0;strokeColor=#333333;exitX=1;exitY=0.25;exitDx=0;exitDy=0;entryPerimeter=0;" edge="1" parent="1" source="15" target="17">
                    <mxGeometry relative="1" as="geometry"/>
                </mxCell>
                <mxCell id="16" style="edgeStyle=none;html=1;entryX=0;entryY=0.5;entryDx=0;entryDy=0;strokeColor=#333333;" edge="1" parent="1" source="17" target="18">
                    <mxGeometry relative="1" as="geometry"/>
                </mxCell>
                <mxCell id="17" value="Renderer&lt;br&gt;(Browser)" style="rounded=1;whiteSpace=wrap;html=1;arcSize=50;fillColor=#fa6800;fontColor=#000000;strokeColor=#C73500;" vertex="1" parent="1">
                    <mxGeometry x="380" y="660" width="100" height="50" as="geometry"/>
                </mxCell>
                <mxCell id="18" value="Display" style="rounded=1;whiteSpace=wrap;html=1;" vertex="1" parent="1">
                    <mxGeometry x="520" y="665" width="80" height="40" as="geometry"/>
                </mxCell>
                <mxCell id="19" value="Webserver" style="swimlane;whiteSpace=wrap;html=1;strokeColor=#333333;" vertex="1" parent="1">
                    <mxGeometry x="30" y="590" width="300" height="250" as="geometry"/>
                </mxCell>
                <mxCell id="15" value="Multimedia" style="rounded=0;whiteSpace=wrap;html=1;fillColor=#008a00;fontColor=#ffffff;strokeColor=#005700;" vertex="1" parent="19">
                    <mxGeometry x="180" y="180" width="80" height="40" as="geometry"/>
                </mxCell>
                <mxCell id="13" value="CSS" style="rounded=0;whiteSpace=wrap;html=1;fillColor=#6a00ff;fontColor=#ffffff;strokeColor=#3700CC;" vertex="1" parent="19">
                    <mxGeometry x="180" y="115" width="80" height="40" as="geometry"/>
                </mxCell>
                <mxCell id="12" style="edgeStyle=none;html=1;entryX=0.5;entryY=0;entryDx=0;entryDy=0;strokeColor=#333333;" edge="1" parent="19" source="13" target="15">
                    <mxGeometry relative="1" as="geometry"/>
                </mxCell>
                <mxCell id="10" value="JS" style="rounded=0;whiteSpace=wrap;html=1;fillColor=#1ba1e2;fontColor=#ffffff;strokeColor=#006EAF;" vertex="1" parent="19">
                    <mxGeometry x="180" y="40" width="80" height="40" as="geometry"/>
                </mxCell>
                <mxCell id="7" style="edgeStyle=orthogonalEdgeStyle;curved=1;html=1;entryX=0.5;entryY=0;entryDx=0;entryDy=0;strokeColor=#333333;exitX=0.5;exitY=1;exitDx=0;exitDy=0;" edge="1" parent="19" source="10" target="13">
                    <mxGeometry relative="1" as="geometry">
                        <mxPoint x="250" y="100" as="sourcePoint"/>
                    </mxGeometry>
                </mxCell>
                <mxCell id="9" style="edgeStyle=orthogonalEdgeStyle;html=1;entryX=0.004;entryY=0.117;entryDx=0;entryDy=0;exitX=0;exitY=1;exitDx=0;exitDy=0;curved=1;strokeColor=#333333;entryPerimeter=0;" edge="1" parent="19" source="10" target="15">
                    <mxGeometry relative="1" as="geometry">
                        <Array as="points">
                            <mxPoint x="160" y="80"/>
                            <mxPoint x="160" y="184"/>
                            <mxPoint x="180" y="184"/>
                        </Array>
                    </mxGeometry>
                </mxCell>
                <mxCell id="2" style="edgeStyle=none;html=1;entryX=0;entryY=0.75;entryDx=0;entryDy=0;strokeColor=#333333;exitX=0.75;exitY=0;exitDx=0;exitDy=0;" edge="1" parent="19" source="6" target="10">
                    <mxGeometry relative="1" as="geometry"/>
                </mxCell>
                <mxCell id="3" style="edgeStyle=orthogonalEdgeStyle;html=1;entryX=0;entryY=0.5;entryDx=0;entryDy=0;curved=1;exitX=1;exitY=0.5;exitDx=0;exitDy=0;strokeColor=#333333;" edge="1" parent="19" source="6" target="13">
                    <mxGeometry relative="1" as="geometry">
                        <Array as="points">
                            <mxPoint x="140" y="135"/>
                            <mxPoint x="140" y="135"/>
                        </Array>
                    </mxGeometry>
                </mxCell>
                <mxCell id="4" style="html=1;entryX=0;entryY=0.5;entryDx=0;entryDy=0;exitX=1;exitY=1;exitDx=0;exitDy=0;strokeColor=#333333;" edge="1" parent="19" source="6" target="15">
                    <mxGeometry relative="1" as="geometry"/>
                </mxCell>
                <mxCell id="6" value="HTML" style="rounded=0;whiteSpace=wrap;html=1;fillColor=#60a917;fontColor=#ffffff;strokeColor=#2D7600;" vertex="1" parent="19">
                    <mxGeometry x="10" y="115" width="80" height="40" as="geometry"/>
                </mxCell>
                <mxCell id="34" style="edgeStyle=none;html=1;entryX=0;entryY=0.5;entryDx=0;entryDy=0;exitX=0.988;exitY=0.502;exitDx=0;exitDy=0;exitPerimeter=0;strokeColor=#333333;" edge="1" parent="1" source="20" target="6">
                    <mxGeometry relative="1" as="geometry"/>
                </mxCell>
                <mxCell id="35" style="edgeStyle=none;html=1;entryX=0;entryY=0.5;entryDx=0;entryDy=0;exitX=0.962;exitY=0.245;exitDx=0;exitDy=0;exitPerimeter=0;strokeColor=#333333;" edge="1" parent="1" source="20" target="10">
                    <mxGeometry relative="1" as="geometry"/>
                </mxCell>
                <mxCell id="36" style="edgeStyle=none;html=1;entryX=0.001;entryY=0.892;entryDx=0;entryDy=0;exitX=0.89;exitY=0.899;exitDx=0;exitDy=0;exitPerimeter=0;entryPerimeter=0;strokeColor=#333333;" edge="1" parent="1" source="20" target="15">
                    <mxGeometry relative="1" as="geometry"/>
                </mxCell>
                <mxCell id="20" value="Framework" style="rounded=1;whiteSpace=wrap;html=1;fillColor=#a20025;fontColor=#ffffff;strokeColor=#6F0000;arcSize=50;" vertex="1" parent="1">
                    <mxGeometry x="-100" y="705" width="80" height="40" as="geometry"/>
                </mxCell>
                <mxCell id="33" style="edgeStyle=none;html=1;entryX=0;entryY=0.5;entryDx=0;entryDy=0;strokeColor=#333333;" edge="1" parent="1" source="22" target="20">
                    <mxGeometry relative="1" as="geometry"/>
                </mxCell>
                <mxCell id="22" value="Page" style="swimlane;whiteSpace=wrap;html=1;rounded=0;strokeColor=#333333;" vertex="1" parent="1">
                    <mxGeometry x="-300" y="555" width="160" height="340" as="geometry"/>
                </mxCell>
                <mxCell id="23" value="Component" style="swimlane;whiteSpace=wrap;html=1;rounded=0;strokeColor=#333333;" vertex="1" parent="22">
                    <mxGeometry x="20" y="35" width="120" height="280" as="geometry"/>
                </mxCell>
                <mxCell id="24" value="HTML" style="rounded=0;whiteSpace=wrap;html=1;fillColor=#60a917;fontColor=#ffffff;strokeColor=#2D7600;" vertex="1" parent="23">
                    <mxGeometry x="20" y="40" width="80" height="40" as="geometry"/>
                </mxCell>
                <mxCell id="26" value="JS" style="rounded=0;whiteSpace=wrap;html=1;fillColor=#1ba1e2;fontColor=#ffffff;strokeColor=#006EAF;" vertex="1" parent="23">
                    <mxGeometry x="20" y="100" width="80" height="40" as="geometry"/>
                </mxCell>
                <mxCell id="31" value="CSS" style="rounded=0;whiteSpace=wrap;html=1;fillColor=#6a00ff;fontColor=#ffffff;strokeColor=#3700CC;" vertex="1" parent="23">
                    <mxGeometry x="20" y="160" width="80" height="40" as="geometry"/>
                </mxCell>
                <mxCell id="32" value="Multimedia" style="rounded=0;whiteSpace=wrap;html=1;fillColor=#008a00;fontColor=#ffffff;strokeColor=#005700;" vertex="1" parent="23">
                    <mxGeometry x="20" y="220" width="80" height="40" as="geometry"/>
                </mxCell>
            </root>
        </mxGraphModel>
    </diagram>
</mxfile>